<svg xmlns="http://www.w3.org/2000/svg" width="64" height="64" viewBox="0 0 64 64">
  <rect width="64" height="64" fill="#f5f5f5" rx="10" />
  <path d="M32 12C22.95 12 16 18.95 16 28s6.95 16 16 16 16-6.95 16-16S41.05 12 32 12zm0 28c-6.63 0-12-5.37-12-12s5.37-12 12-12 12 5.37 12 12-5.37 12-12 12z" fill="#333"/>
  <path d="M32 20c-4.41 0-8 3.59-8 8s3.59 8 8 8 8-3.59 8-8-3.59-8-8-8z" fill="#42b883"/>
  <path d="M48 48H16c-2.21 0-4 1.79-4 4v4h40v-4c0-2.21-1.79-4-4-4z" fill="#35495e"/>
  <path d="M48 48c-2.21 0-4 1.79-4 4v4h4c2.21 0 4-1.79 4-4v-4h-4z" fill="#35495e"/>
</svg>